<?xml version="1.0" encoding="UTF-8" standalone="no"?>
<!DOCTYPE svg PUBLIC "-//W3C//DTD SVG 1.1//EN"
 "http://www.w3.org/Graphics/SVG/1.1/DTD/svg11.dtd">
<!-- Generated by graphviz version 2.40.1 (20161225.0304)
 -->
<!-- Title: dependencies Pages: 1 -->
<svg width="2636pt" height="287pt"
 viewBox="0.00 0.00 2636.00 287.00" xmlns="http://www.w3.org/2000/svg" xmlns:xlink="http://www.w3.org/1999/xlink">
<g id="graph0" class="graph" transform="scale(1 1) rotate(0) translate(4 283)">
<title>dependencies</title>
<polygon fill="#ffffff" stroke="transparent" points="-4,4 -4,-283 2632,-283 2632,4 -4,4"/>
<text text-anchor="start" x="1293.0091" y="-42.4" font-family="sans-serif" font-weight="bold" font-size="14.00" fill="#000000">Legend</text>
<polygon fill="#ffffb3" stroke="transparent" points="1080,-10 1080,-30 1100,-30 1100,-10 1080,-10"/>
<text text-anchor="start" x="1103.629" y="-15.4" font-family="sans-serif" font-size="14.00" fill="#000000"> &#160;Declarations</text>
<polygon fill="#8dd3c7" stroke="transparent" points="1193,-10 1193,-30 1213,-30 1213,-10 1193,-10"/>
<text text-anchor="start" x="1216.7251" y="-15.4" font-family="sans-serif" font-size="14.00" fill="#000000"> &#160;Module</text>
<polygon fill="#80b1d3" stroke="transparent" points="1279,-10 1279,-30 1299,-30 1299,-10 1279,-10"/>
<text text-anchor="start" x="1302.7812" y="-15.4" font-family="sans-serif" font-size="14.00" fill="#000000"> &#160;Bootstrap</text>
<polygon fill="#fdb462" stroke="transparent" points="1376,-10 1376,-30 1396,-30 1396,-10 1376,-10"/>
<text text-anchor="start" x="1399.6732" y="-15.4" font-family="sans-serif" font-size="14.00" fill="#000000"> &#160;Providers</text>
<polygon fill="#fb8072" stroke="transparent" points="1472,-10 1472,-30 1492,-30 1492,-10 1472,-10"/>
<text text-anchor="start" x="1495.7258" y="-15.4" font-family="sans-serif" font-size="14.00" fill="#000000"> &#160;Exports</text>
<g id="clust1" class="cluster">
<title>cluster_AppModule</title>
<polygon fill="none" stroke="#000000" stroke-dasharray="1,5" points="8,-70 8,-271 1575,-271 1575,-70 8,-70"/>
</g>
<g id="clust2" class="cluster">
<title>cluster_AppModule_declarations</title>
<polygon fill="none" stroke="#000000" points="1445,-78 1445,-130 1567,-130 1567,-78 1445,-78"/>
</g>
<g id="clust4" class="cluster">
<title>cluster_AppModule_imports</title>
<polygon fill="none" stroke="#000000" points="814,-78 814,-130 1437,-130 1437,-78 814,-78"/>
</g>
<g id="clust6" class="cluster">
<title>cluster_AppModule_bootstrap</title>
<polygon fill="none" stroke="#000000" points="930,-211 930,-263 1054,-263 1054,-211 930,-211"/>
</g>
<g id="clust7" class="cluster">
<title>cluster_AppModule_providers</title>
<polygon fill="none" stroke="#000000" points="16,-78 16,-130 806,-130 806,-78 16,-78"/>
</g>
<g id="clust8" class="cluster">
<title>cluster_HomePageModule</title>
<polygon fill="none" stroke="#000000" stroke-dasharray="1,5" points="1583,-70 1583,-263 2320,-263 2320,-70 1583,-70"/>
</g>
<g id="clust9" class="cluster">
<title>cluster_HomePageModule_declarations</title>
<polygon fill="none" stroke="#000000" points="1663,-143 1663,-195 1757,-195 1757,-143 1663,-143"/>
</g>
<g id="clust11" class="cluster">
<title>cluster_HomePageModule_imports</title>
<polygon fill="none" stroke="#000000" points="1765,-78 1765,-195 2312,-195 2312,-78 1765,-78"/>
</g>
<g id="clust15" class="cluster">
<title>cluster_SharedDirectivesModule</title>
<polygon fill="none" stroke="#000000" stroke-dasharray="1,5" points="2328,-203 2328,-271 2620,-271 2620,-203 2328,-203"/>
</g>
<g id="clust16" class="cluster">
<title>cluster_SharedDirectivesModule_declarations</title>
<polygon fill="none" stroke="#000000" points="2480,-211 2480,-263 2612,-263 2612,-211 2480,-211"/>
</g>
<g id="clust19" class="cluster">
<title>cluster_SharedDirectivesModule_exports</title>
<polygon fill="none" stroke="#000000" points="2336,-211 2336,-263 2472,-263 2472,-211 2336,-211"/>
</g>
<!-- AppComponent -->
<g id="node1" class="node">
<title>AppComponent</title>
<polygon fill="#ffffb3" stroke="#000000" points="1558.9399,-122 1453.0601,-122 1453.0601,-86 1558.9399,-86 1558.9399,-122"/>
<text text-anchor="middle" x="1506" y="-99.8" font-family="Times,serif" font-size="14.00" fill="#000000">AppComponent</text>
</g>
<!-- AppModule -->
<g id="node2" class="node">
<title>AppModule</title>
<polygon fill="#8dd3c7" stroke="#000000" points="1033.6571,-187 1030.6571,-191 1009.6571,-191 1006.6571,-187 950.3429,-187 950.3429,-151 1033.6571,-151 1033.6571,-187"/>
<text text-anchor="middle" x="992" y="-164.8" font-family="Times,serif" font-size="14.00" fill="#000000">AppModule</text>
</g>
<!-- AppComponent&#45;&gt;AppModule -->
<g id="edge1" class="edge">
<title>AppComponent&#45;&gt;AppModule</title>
<path fill="none" stroke="#000000" d="M1506,-122.2921C1506,-144.2057 1506,-178 1506,-178 1506,-178 1044.0628,-178 1044.0628,-178"/>
<polygon fill="#000000" stroke="#000000" points="1044.0628,-174.5001 1034.0628,-178 1044.0627,-181.5001 1044.0628,-174.5001"/>
</g>
<!-- AppComponent  -->
<g id="node7" class="node">
<title>AppComponent </title>
<polygon fill="#80b1d3" stroke="#000000" points="1046.439,-255 937.561,-255 937.561,-219 1046.439,-219 1046.439,-255"/>
<text text-anchor="middle" x="992" y="-232.8" font-family="Times,serif" font-size="14.00" fill="#000000">AppComponent </text>
</g>
<!-- AppModule&#45;&gt;AppComponent  -->
<g id="edge6" class="edge">
<title>AppModule&#45;&gt;AppComponent </title>
<path fill="none" stroke="#000000" stroke-dasharray="1,5" d="M992,-187.2228C992,-187.2228 992,-208.7269 992,-208.7269"/>
<polygon fill="#000000" stroke="#000000" points="988.5001,-208.7269 992,-218.7269 995.5001,-208.727 988.5001,-208.7269"/>
</g>
<!-- BrowserModule -->
<g id="node3" class="node">
<title>BrowserModule</title>
<polygon fill="#8dd3c7" stroke="#000000" points="1429.4734,-122 1426.4734,-126 1405.4734,-126 1402.4734,-122 1322.5266,-122 1322.5266,-86 1429.4734,-86 1429.4734,-122"/>
<text text-anchor="middle" x="1376" y="-99.8" font-family="Times,serif" font-size="14.00" fill="#000000">BrowserModule</text>
</g>
<!-- BrowserModule&#45;&gt;AppModule -->
<g id="edge2" class="edge">
<title>BrowserModule&#45;&gt;AppModule</title>
<path fill="none" stroke="#000000" d="M1376,-122.1061C1376,-141.3391 1376,-169 1376,-169 1376,-169 1043.8257,-169 1043.8257,-169"/>
<polygon fill="#000000" stroke="#000000" points="1043.8258,-165.5001 1033.8257,-169 1043.8257,-172.5001 1043.8258,-165.5001"/>
</g>
<!-- IonicModule.forRoot() -->
<g id="node4" class="node">
<title>IonicModule.forRoot()</title>
<polygon fill="#8dd3c7" stroke="#000000" points="1304.1855,-122 1301.1855,-126 1280.1855,-126 1277.1855,-122 1159.8145,-122 1159.8145,-86 1304.1855,-86 1304.1855,-122"/>
<text text-anchor="middle" x="1232" y="-99.8" font-family="Times,serif" font-size="14.00" fill="#000000">IonicModule.forRoot()</text>
</g>
<!-- IonicModule.forRoot()&#45;&gt;AppModule -->
<g id="edge3" class="edge">
<title>IonicModule.forRoot()&#45;&gt;AppModule</title>
<path fill="none" stroke="#000000" d="M1232,-122.027C1232,-138.3976 1232,-160 1232,-160 1232,-160 1043.8048,-160 1043.8048,-160"/>
<polygon fill="#000000" stroke="#000000" points="1043.8048,-156.5001 1033.8048,-160 1043.8048,-163.5001 1043.8048,-156.5001"/>
</g>
<!-- AppRoutingModule -->
<g id="node5" class="node">
<title>AppRoutingModule</title>
<polygon fill="#8dd3c7" stroke="#000000" points="1141.2744,-122 1138.2744,-126 1117.2744,-126 1114.2744,-122 1012.7256,-122 1012.7256,-86 1141.2744,-86 1141.2744,-122"/>
<text text-anchor="middle" x="1077" y="-99.8" font-family="Times,serif" font-size="14.00" fill="#000000">AppRoutingModule</text>
</g>
<!-- AppRoutingModule&#45;&gt;AppModule -->
<g id="edge4" class="edge">
<title>AppRoutingModule&#45;&gt;AppModule</title>
<path fill="none" stroke="#000000" d="M1023.2206,-122.1061C1023.2206,-122.1061 1023.2206,-140.991 1023.2206,-140.991"/>
<polygon fill="#000000" stroke="#000000" points="1019.7206,-140.9909 1023.2206,-150.991 1026.7206,-140.991 1019.7206,-140.9909"/>
</g>
<!-- BrowserAnimationsModule -->
<g id="node6" class="node">
<title>BrowserAnimationsModule</title>
<polygon fill="#8dd3c7" stroke="#000000" points="994.3019,-122 991.3019,-126 970.3019,-126 967.3019,-122 821.6981,-122 821.6981,-86 994.3019,-86 994.3019,-122"/>
<text text-anchor="middle" x="908" y="-99.8" font-family="Times,serif" font-size="14.00" fill="#000000">BrowserAnimationsModule</text>
</g>
<!-- BrowserAnimationsModule&#45;&gt;AppModule -->
<g id="edge5" class="edge">
<title>BrowserAnimationsModule&#45;&gt;AppModule</title>
<path fill="none" stroke="#000000" d="M972.1613,-122.1061C972.1613,-122.1061 972.1613,-140.991 972.1613,-140.991"/>
<polygon fill="#000000" stroke="#000000" points="968.6614,-140.9909 972.1613,-150.991 975.6614,-140.991 968.6614,-140.9909"/>
</g>
<!-- StatusBar -->
<g id="node8" class="node">
<title>StatusBar</title>
<ellipse fill="#fdb462" stroke="#000000" cx="749" cy="-104" rx="48.6694" ry="18"/>
<text text-anchor="middle" x="749" y="-99.8" font-family="Times,serif" font-size="14.00" fill="#000000">StatusBar</text>
</g>
<!-- StatusBar&#45;&gt;AppModule -->
<g id="edge7" class="edge">
<title>StatusBar&#45;&gt;AppModule</title>
<path fill="none" stroke="#000000" d="M749,-122.027C749,-138.3976 749,-160 749,-160 749,-160 940.2268,-160 940.2268,-160"/>
<polygon fill="#000000" stroke="#000000" points="940.2268,-163.5001 950.2268,-160 940.2268,-156.5001 940.2268,-163.5001"/>
</g>
<!-- SplashScreen -->
<g id="node9" class="node">
<title>SplashScreen</title>
<ellipse fill="#fdb462" stroke="#000000" cx="619" cy="-104" rx="63.1189" ry="18"/>
<text text-anchor="middle" x="619" y="-99.8" font-family="Times,serif" font-size="14.00" fill="#000000">SplashScreen</text>
</g>
<!-- SplashScreen&#45;&gt;AppModule -->
<g id="edge8" class="edge">
<title>SplashScreen&#45;&gt;AppModule</title>
<path fill="none" stroke="#000000" d="M619,-122.1061C619,-141.3391 619,-169 619,-169 619,-169 940.2979,-169 940.2979,-169"/>
<polygon fill="#000000" stroke="#000000" points="940.2979,-172.5001 950.2979,-169 940.2979,-165.5001 940.2979,-172.5001"/>
</g>
<!-- { provide: RouteReuseStrategy, useClass: IonicRouteStrategy } -->
<g id="node10" class="node">
<title>{ provide: RouteReuseStrategy, useClass: IonicRouteStrategy }</title>
<ellipse fill="#fdb462" stroke="#000000" cx="281" cy="-104" rx="257.2723" ry="18"/>
<text text-anchor="middle" x="281" y="-99.8" font-family="Times,serif" font-size="14.00" fill="#000000">{ provide: RouteReuseStrategy, useClass: IonicRouteStrategy }</text>
</g>
<!-- { provide: RouteReuseStrategy, useClass: IonicRouteStrategy }&#45;&gt;AppModule -->
<g id="edge9" class="edge">
<title>{ provide: RouteReuseStrategy, useClass: IonicRouteStrategy }&#45;&gt;AppModule</title>
<path fill="none" stroke="#000000" d="M281,-122.2921C281,-144.2057 281,-178 281,-178 281,-178 940.1781,-178 940.1781,-178"/>
<polygon fill="#000000" stroke="#000000" points="940.1782,-181.5001 950.1781,-178 940.1781,-174.5001 940.1782,-181.5001"/>
</g>
<!-- HomePage -->
<g id="node11" class="node">
<title>HomePage</title>
<polygon fill="#ffffb3" stroke="#000000" points="1748.9248,-187 1671.0752,-187 1671.0752,-151 1748.9248,-151 1748.9248,-187"/>
<text text-anchor="middle" x="1710" y="-164.8" font-family="Times,serif" font-size="14.00" fill="#000000">HomePage</text>
</g>
<!-- HomePageModule -->
<g id="node12" class="node">
<title>HomePageModule</title>
<polygon fill="#8dd3c7" stroke="#000000" points="1711.4734,-255 1708.4734,-259 1687.4734,-259 1684.4734,-255 1590.5266,-255 1590.5266,-219 1711.4734,-219 1711.4734,-255"/>
<text text-anchor="middle" x="1651" y="-232.8" font-family="Times,serif" font-size="14.00" fill="#000000">HomePageModule</text>
</g>
<!-- HomePage&#45;&gt;HomePageModule -->
<g id="edge10" class="edge">
<title>HomePage&#45;&gt;HomePageModule</title>
<path fill="none" stroke="#000000" d="M1691.3875,-187.2228C1691.3875,-187.2228 1691.3875,-208.7269 1691.3875,-208.7269"/>
<polygon fill="#000000" stroke="#000000" points="1687.8875,-208.7269 1691.3875,-218.7269 1694.8875,-208.727 1687.8875,-208.7269"/>
</g>
<!-- CommonModule -->
<g id="node13" class="node">
<title>CommonModule</title>
<polygon fill="#8dd3c7" stroke="#000000" points="2303.6681,-122 2300.6681,-126 2279.6681,-126 2276.6681,-122 2192.3319,-122 2192.3319,-86 2303.6681,-86 2303.6681,-122"/>
<text text-anchor="middle" x="2248" y="-99.8" font-family="Times,serif" font-size="14.00" fill="#000000">CommonModule</text>
</g>
<!-- CommonModule&#45;&gt;HomePageModule -->
<g id="edge11" class="edge">
<title>CommonModule&#45;&gt;HomePageModule</title>
<path fill="none" stroke="#000000" d="M2229.3887,-122.0449C2229.3887,-129.749 2229.3887,-137 2229.3887,-137 2229.3887,-137 1644.3632,-137 1644.3632,-137 1644.3632,-137 1644.3632,-208.6585 1644.3632,-208.6585"/>
<polygon fill="#000000" stroke="#000000" points="1640.8633,-208.6584 1644.3632,-218.6585 1647.8633,-208.6585 1640.8633,-208.6584"/>
</g>
<!-- SharedDirectivesModule -->
<g id="node16" class="node">
<title>SharedDirectivesModule</title>
<polygon fill="#8dd3c7" stroke="#000000" points="2303.9496,-187 2300.9496,-191 2279.9496,-191 2276.9496,-187 2148.0504,-187 2148.0504,-151 2303.9496,-151 2303.9496,-187"/>
<text text-anchor="middle" x="2226" y="-164.8" font-family="Times,serif" font-size="14.00" fill="#000000">SharedDirectivesModule</text>
</g>
<!-- CommonModule&#45;&gt;SharedDirectivesModule -->
<g id="edge17" class="edge">
<title>CommonModule&#45;&gt;SharedDirectivesModule</title>
<path fill="none" stroke="#000000" d="M2266.6113,-122.1061C2266.6113,-122.1061 2266.6113,-140.991 2266.6113,-140.991"/>
<polygon fill="#000000" stroke="#000000" points="2263.1114,-140.9909 2266.6113,-150.991 2270.1114,-140.991 2263.1114,-140.9909"/>
</g>
<!-- FormsModule -->
<g id="node14" class="node">
<title>FormsModule</title>
<polygon fill="#8dd3c7" stroke="#000000" points="2067.8288,-122 2064.8288,-126 2043.8288,-126 2040.8288,-122 1972.1712,-122 1972.1712,-86 2067.8288,-86 2067.8288,-122"/>
<text text-anchor="middle" x="2020" y="-99.8" font-family="Times,serif" font-size="14.00" fill="#000000">FormsModule</text>
</g>
<!-- FormsModule&#45;&gt;HomePageModule -->
<g id="edge12" class="edge">
<title>FormsModule&#45;&gt;HomePageModule</title>
<path fill="none" stroke="#000000" d="M2020,-122.0307C2020,-156.4218 2020,-228 2020,-228 2020,-228 1721.5196,-228 1721.5196,-228"/>
<polygon fill="#000000" stroke="#000000" points="1721.5197,-224.5001 1711.5196,-228 1721.5196,-231.5001 1721.5197,-224.5001"/>
</g>
<!-- IonicModule -->
<g id="node15" class="node">
<title>IonicModule</title>
<polygon fill="#8dd3c7" stroke="#000000" points="2174.3162,-122 2171.3162,-126 2150.3162,-126 2147.3162,-122 2085.6838,-122 2085.6838,-86 2174.3162,-86 2174.3162,-122"/>
<text text-anchor="middle" x="2130" y="-99.8" font-family="Times,serif" font-size="14.00" fill="#000000">IonicModule</text>
</g>
<!-- IonicModule&#45;&gt;HomePageModule -->
<g id="edge13" class="edge">
<title>IonicModule&#45;&gt;HomePageModule</title>
<path fill="none" stroke="#000000" d="M2116.9337,-122.2142C2116.9337,-158.6396 2116.9337,-237 2116.9337,-237 2116.9337,-237 1721.9127,-237 1721.9127,-237"/>
<polygon fill="#000000" stroke="#000000" points="1721.9127,-233.5001 1711.9127,-237 1721.9127,-240.5001 1721.9127,-233.5001"/>
</g>
<!-- SharedDirectivesModule&#45;&gt;HomePageModule -->
<g id="edge14" class="edge">
<title>SharedDirectivesModule&#45;&gt;HomePageModule</title>
<path fill="none" stroke="#000000" d="M2226,-187.2479C2226,-210.0179 2226,-246 2226,-246 2226,-246 1721.7193,-246 1721.7193,-246"/>
<polygon fill="#000000" stroke="#000000" points="1721.7193,-242.5001 1711.7193,-246 1721.7192,-249.5001 1721.7193,-242.5001"/>
</g>
<!-- HasRoleDirective  -->
<g id="node19" class="node">
<title>HasRoleDirective </title>
<polygon fill="#fb8072" stroke="#000000" points="2463.7906,-255 2344.2094,-255 2344.2094,-219 2463.7906,-219 2463.7906,-255"/>
<text text-anchor="middle" x="2404" y="-232.8" font-family="Times,serif" font-size="14.00" fill="#000000">HasRoleDirective </text>
</g>
<!-- SharedDirectivesModule&#45;&gt;HasRoleDirective  -->
<g id="edge18" class="edge">
<title>SharedDirectivesModule&#45;&gt;HasRoleDirective </title>
<path fill="none" stroke="#000000" stroke-dasharray="5,2" d="M2304.0734,-175C2351.8998,-175 2404,-175 2404,-175 2404,-175 2404,-208.7333 2404,-208.7333"/>
<polygon fill="#000000" stroke="#000000" points="2400.5001,-208.7333 2404,-218.7333 2407.5001,-208.7333 2400.5001,-208.7333"/>
</g>
<!-- RouterModule.forChild(args) -->
<g id="node17" class="node">
<title>RouterModule.forChild(args)</title>
<polygon fill="#8dd3c7" stroke="#000000" points="1954.7323,-122 1951.7323,-126 1930.7323,-126 1927.7323,-122 1773.2677,-122 1773.2677,-86 1954.7323,-86 1954.7323,-122"/>
<text text-anchor="middle" x="1864" y="-99.8" font-family="Times,serif" font-size="14.00" fill="#000000">RouterModule.forChild(args)</text>
</g>
<!-- RouterModule.forChild(args)&#45;&gt;HomePageModule -->
<g id="edge15" class="edge">
<title>RouterModule.forChild(args)&#45;&gt;HomePageModule</title>
<path fill="none" stroke="#000000" d="M1773.2399,-104C1702.9371,-104 1617.4383,-104 1617.4383,-104 1617.4383,-104 1617.4383,-208.7858 1617.4383,-208.7858"/>
<polygon fill="#000000" stroke="#000000" points="1613.9384,-208.7858 1617.4383,-218.7858 1620.9384,-208.7858 1613.9384,-208.7858"/>
</g>
<!-- HasRoleDirective -->
<g id="node18" class="node">
<title>HasRoleDirective</title>
<polygon fill="#ffffb3" stroke="#000000" points="2604.2908,-255 2487.7092,-255 2487.7092,-219 2604.2908,-219 2604.2908,-255"/>
<text text-anchor="middle" x="2546" y="-232.8" font-family="Times,serif" font-size="14.00" fill="#000000">HasRoleDirective</text>
</g>
<!-- HasRoleDirective&#45;&gt;SharedDirectivesModule -->
<g id="edge16" class="edge">
<title>HasRoleDirective&#45;&gt;SharedDirectivesModule</title>
<path fill="none" stroke="#000000" d="M2546,-218.7079C2546,-196.7943 2546,-163 2546,-163 2546,-163 2314.2808,-163 2314.2808,-163"/>
<polygon fill="#000000" stroke="#000000" points="2314.2808,-159.5001 2304.2808,-163 2314.2808,-166.5001 2314.2808,-159.5001"/>
</g>
</g>
</svg>
