<?xml version="1.0" encoding="UTF-8" standalone="no"?>
<!DOCTYPE svg PUBLIC "-//W3C//DTD SVG 1.1//EN"
 "http://www.w3.org/Graphics/SVG/1.1/DTD/svg11.dtd">
<!-- Generated by graphviz version 2.40.1 (20161225.0304)
 -->
<!-- Title: dependencies Pages: 1 -->
<svg width="1591pt" height="284pt"
 viewBox="0.00 0.00 1591.00 284.00" xmlns="http://www.w3.org/2000/svg" xmlns:xlink="http://www.w3.org/1999/xlink">
<g id="graph0" class="graph" transform="scale(1 1) rotate(0) translate(4 280)">
<title>dependencies</title>
<polygon fill="#ffffff" stroke="transparent" points="-4,4 -4,-280 1587,-280 1587,4 -4,4"/>
<text text-anchor="start" x="770.5091" y="-42.4" font-family="sans-serif" font-weight="bold" font-size="14.00" fill="#000000">Legend</text>
<polygon fill="#ffffb3" stroke="transparent" points="557.5,-10 557.5,-30 577.5,-30 577.5,-10 557.5,-10"/>
<text text-anchor="start" x="581.129" y="-15.4" font-family="sans-serif" font-size="14.00" fill="#000000"> &#160;Declarations</text>
<polygon fill="#8dd3c7" stroke="transparent" points="670.5,-10 670.5,-30 690.5,-30 690.5,-10 670.5,-10"/>
<text text-anchor="start" x="694.2251" y="-15.4" font-family="sans-serif" font-size="14.00" fill="#000000"> &#160;Module</text>
<polygon fill="#80b1d3" stroke="transparent" points="756.5,-10 756.5,-30 776.5,-30 776.5,-10 756.5,-10"/>
<text text-anchor="start" x="780.2812" y="-15.4" font-family="sans-serif" font-size="14.00" fill="#000000"> &#160;Bootstrap</text>
<polygon fill="#fdb462" stroke="transparent" points="853.5,-10 853.5,-30 873.5,-30 873.5,-10 853.5,-10"/>
<text text-anchor="start" x="877.1732" y="-15.4" font-family="sans-serif" font-size="14.00" fill="#000000"> &#160;Providers</text>
<polygon fill="#fb8072" stroke="transparent" points="949.5,-10 949.5,-30 969.5,-30 969.5,-10 949.5,-10"/>
<text text-anchor="start" x="973.2258" y="-15.4" font-family="sans-serif" font-size="14.00" fill="#000000"> &#160;Exports</text>
<g id="clust1" class="cluster">
<title>cluster_AppModule</title>
<polygon fill="none" stroke="#000000" stroke-dasharray="1,5" points="8,-70 8,-268 1575,-268 1575,-70 8,-70"/>
</g>
<g id="clust2" class="cluster">
<title>cluster_AppModule_declarations</title>
<polygon fill="none" stroke="#000000" points="1445,-78 1445,-130 1567,-130 1567,-78 1445,-78"/>
</g>
<g id="clust4" class="cluster">
<title>cluster_AppModule_imports</title>
<polygon fill="none" stroke="#000000" points="814,-78 814,-130 1437,-130 1437,-78 814,-78"/>
</g>
<g id="clust6" class="cluster">
<title>cluster_AppModule_bootstrap</title>
<polygon fill="none" stroke="#000000" points="930,-208 930,-260 1054,-260 1054,-208 930,-208"/>
</g>
<g id="clust7" class="cluster">
<title>cluster_AppModule_providers</title>
<polygon fill="none" stroke="#000000" points="16,-78 16,-130 806,-130 806,-78 16,-78"/>
</g>
<!-- AppComponent -->
<g id="node1" class="node">
<title>AppComponent</title>
<polygon fill="#ffffb3" stroke="#000000" points="1558.9399,-122 1453.0601,-122 1453.0601,-86 1558.9399,-86 1558.9399,-122"/>
<text text-anchor="middle" x="1506" y="-99.8" font-family="Times,serif" font-size="14.00" fill="#000000">AppComponent</text>
</g>
<!-- AppModule -->
<g id="node2" class="node">
<title>AppModule</title>
<polygon fill="#8dd3c7" stroke="#000000" points="1033.6571,-187 1030.6571,-191 1009.6571,-191 1006.6571,-187 950.3429,-187 950.3429,-151 1033.6571,-151 1033.6571,-187"/>
<text text-anchor="middle" x="992" y="-164.8" font-family="Times,serif" font-size="14.00" fill="#000000">AppModule</text>
</g>
<!-- AppComponent&#45;&gt;AppModule -->
<g id="edge1" class="edge">
<title>AppComponent&#45;&gt;AppModule</title>
<path fill="none" stroke="#000000" d="M1506,-122.2921C1506,-144.2057 1506,-178 1506,-178 1506,-178 1044.0628,-178 1044.0628,-178"/>
<polygon fill="#000000" stroke="#000000" points="1044.0628,-174.5001 1034.0628,-178 1044.0627,-181.5001 1044.0628,-174.5001"/>
</g>
<!-- AppComponent  -->
<g id="node7" class="node">
<title>AppComponent </title>
<polygon fill="#80b1d3" stroke="#000000" points="1046.439,-252 937.561,-252 937.561,-216 1046.439,-216 1046.439,-252"/>
<text text-anchor="middle" x="992" y="-229.8" font-family="Times,serif" font-size="14.00" fill="#000000">AppComponent </text>
</g>
<!-- AppModule&#45;&gt;AppComponent  -->
<g id="edge6" class="edge">
<title>AppModule&#45;&gt;AppComponent </title>
<path fill="none" stroke="#000000" stroke-dasharray="1,5" d="M992,-187.1061C992,-187.1061 992,-205.991 992,-205.991"/>
<polygon fill="#000000" stroke="#000000" points="988.5001,-205.9909 992,-215.991 995.5001,-205.991 988.5001,-205.9909"/>
</g>
<!-- BrowserModule -->
<g id="node3" class="node">
<title>BrowserModule</title>
<polygon fill="#8dd3c7" stroke="#000000" points="1429.4734,-122 1426.4734,-126 1405.4734,-126 1402.4734,-122 1322.5266,-122 1322.5266,-86 1429.4734,-86 1429.4734,-122"/>
<text text-anchor="middle" x="1376" y="-99.8" font-family="Times,serif" font-size="14.00" fill="#000000">BrowserModule</text>
</g>
<!-- BrowserModule&#45;&gt;AppModule -->
<g id="edge2" class="edge">
<title>BrowserModule&#45;&gt;AppModule</title>
<path fill="none" stroke="#000000" d="M1376,-122.1061C1376,-141.3391 1376,-169 1376,-169 1376,-169 1043.8257,-169 1043.8257,-169"/>
<polygon fill="#000000" stroke="#000000" points="1043.8258,-165.5001 1033.8257,-169 1043.8257,-172.5001 1043.8258,-165.5001"/>
</g>
<!-- IonicModule.forRoot() -->
<g id="node4" class="node">
<title>IonicModule.forRoot()</title>
<polygon fill="#8dd3c7" stroke="#000000" points="1304.1855,-122 1301.1855,-126 1280.1855,-126 1277.1855,-122 1159.8145,-122 1159.8145,-86 1304.1855,-86 1304.1855,-122"/>
<text text-anchor="middle" x="1232" y="-99.8" font-family="Times,serif" font-size="14.00" fill="#000000">IonicModule.forRoot()</text>
</g>
<!-- IonicModule.forRoot()&#45;&gt;AppModule -->
<g id="edge3" class="edge">
<title>IonicModule.forRoot()&#45;&gt;AppModule</title>
<path fill="none" stroke="#000000" d="M1232,-122.027C1232,-138.3976 1232,-160 1232,-160 1232,-160 1043.8048,-160 1043.8048,-160"/>
<polygon fill="#000000" stroke="#000000" points="1043.8048,-156.5001 1033.8048,-160 1043.8048,-163.5001 1043.8048,-156.5001"/>
</g>
<!-- AppRoutingModule -->
<g id="node5" class="node">
<title>AppRoutingModule</title>
<polygon fill="#8dd3c7" stroke="#000000" points="1141.2744,-122 1138.2744,-126 1117.2744,-126 1114.2744,-122 1012.7256,-122 1012.7256,-86 1141.2744,-86 1141.2744,-122"/>
<text text-anchor="middle" x="1077" y="-99.8" font-family="Times,serif" font-size="14.00" fill="#000000">AppRoutingModule</text>
</g>
<!-- AppRoutingModule&#45;&gt;AppModule -->
<g id="edge4" class="edge">
<title>AppRoutingModule&#45;&gt;AppModule</title>
<path fill="none" stroke="#000000" d="M1023.2206,-122.1061C1023.2206,-122.1061 1023.2206,-140.991 1023.2206,-140.991"/>
<polygon fill="#000000" stroke="#000000" points="1019.7206,-140.9909 1023.2206,-150.991 1026.7206,-140.991 1019.7206,-140.9909"/>
</g>
<!-- BrowserAnimationsModule -->
<g id="node6" class="node">
<title>BrowserAnimationsModule</title>
<polygon fill="#8dd3c7" stroke="#000000" points="994.3019,-122 991.3019,-126 970.3019,-126 967.3019,-122 821.6981,-122 821.6981,-86 994.3019,-86 994.3019,-122"/>
<text text-anchor="middle" x="908" y="-99.8" font-family="Times,serif" font-size="14.00" fill="#000000">BrowserAnimationsModule</text>
</g>
<!-- BrowserAnimationsModule&#45;&gt;AppModule -->
<g id="edge5" class="edge">
<title>BrowserAnimationsModule&#45;&gt;AppModule</title>
<path fill="none" stroke="#000000" d="M972.1613,-122.1061C972.1613,-122.1061 972.1613,-140.991 972.1613,-140.991"/>
<polygon fill="#000000" stroke="#000000" points="968.6614,-140.9909 972.1613,-150.991 975.6614,-140.991 968.6614,-140.9909"/>
</g>
<!-- StatusBar -->
<g id="node8" class="node">
<title>StatusBar</title>
<ellipse fill="#fdb462" stroke="#000000" cx="749" cy="-104" rx="48.6694" ry="18"/>
<text text-anchor="middle" x="749" y="-99.8" font-family="Times,serif" font-size="14.00" fill="#000000">StatusBar</text>
</g>
<!-- StatusBar&#45;&gt;AppModule -->
<g id="edge7" class="edge">
<title>StatusBar&#45;&gt;AppModule</title>
<path fill="none" stroke="#000000" d="M749,-122.027C749,-138.3976 749,-160 749,-160 749,-160 940.2268,-160 940.2268,-160"/>
<polygon fill="#000000" stroke="#000000" points="940.2268,-163.5001 950.2268,-160 940.2268,-156.5001 940.2268,-163.5001"/>
</g>
<!-- SplashScreen -->
<g id="node9" class="node">
<title>SplashScreen</title>
<ellipse fill="#fdb462" stroke="#000000" cx="619" cy="-104" rx="63.1189" ry="18"/>
<text text-anchor="middle" x="619" y="-99.8" font-family="Times,serif" font-size="14.00" fill="#000000">SplashScreen</text>
</g>
<!-- SplashScreen&#45;&gt;AppModule -->
<g id="edge8" class="edge">
<title>SplashScreen&#45;&gt;AppModule</title>
<path fill="none" stroke="#000000" d="M619,-122.1061C619,-141.3391 619,-169 619,-169 619,-169 940.2979,-169 940.2979,-169"/>
<polygon fill="#000000" stroke="#000000" points="940.2979,-172.5001 950.2979,-169 940.2979,-165.5001 940.2979,-172.5001"/>
</g>
<!-- { provide: RouteReuseStrategy, useClass: IonicRouteStrategy } -->
<g id="node10" class="node">
<title>{ provide: RouteReuseStrategy, useClass: IonicRouteStrategy }</title>
<ellipse fill="#fdb462" stroke="#000000" cx="281" cy="-104" rx="257.2723" ry="18"/>
<text text-anchor="middle" x="281" y="-99.8" font-family="Times,serif" font-size="14.00" fill="#000000">{ provide: RouteReuseStrategy, useClass: IonicRouteStrategy }</text>
</g>
<!-- { provide: RouteReuseStrategy, useClass: IonicRouteStrategy }&#45;&gt;AppModule -->
<g id="edge9" class="edge">
<title>{ provide: RouteReuseStrategy, useClass: IonicRouteStrategy }&#45;&gt;AppModule</title>
<path fill="none" stroke="#000000" d="M281,-122.2921C281,-144.2057 281,-178 281,-178 281,-178 940.1781,-178 940.1781,-178"/>
<polygon fill="#000000" stroke="#000000" points="940.1782,-181.5001 950.1781,-178 940.1781,-174.5001 940.1782,-181.5001"/>
</g>
</g>
</svg>
