<?xml version="1.0" encoding="UTF-8" standalone="no"?>
<!DOCTYPE svg PUBLIC "-//W3C//DTD SVG 1.1//EN"
 "http://www.w3.org/Graphics/SVG/1.1/DTD/svg11.dtd">
<!-- Generated by graphviz version 2.40.1 (20161225.0304)
 -->
<!-- Title: dependencies Pages: 1 -->
<svg width="863pt" height="211pt"
 viewBox="0.00 0.00 863.00 211.00" xmlns="http://www.w3.org/2000/svg" xmlns:xlink="http://www.w3.org/1999/xlink">
<g id="graph0" class="graph" transform="scale(1 1) rotate(0) translate(4 207)">
<title>dependencies</title>
<polygon fill="#ffffff" stroke="transparent" points="-4,4 -4,-207 859,-207 859,4 -4,4"/>
<text text-anchor="start" x="406.5091" y="-42.4" font-family="sans-serif" font-weight="bold" font-size="14.00" fill="#000000">Legend</text>
<polygon fill="#ffffb3" stroke="transparent" points="193.5,-10 193.5,-30 213.5,-30 213.5,-10 193.5,-10"/>
<text text-anchor="start" x="217.129" y="-15.4" font-family="sans-serif" font-size="14.00" fill="#000000"> &#160;Declarations</text>
<polygon fill="#8dd3c7" stroke="transparent" points="306.5,-10 306.5,-30 326.5,-30 326.5,-10 306.5,-10"/>
<text text-anchor="start" x="330.2251" y="-15.4" font-family="sans-serif" font-size="14.00" fill="#000000"> &#160;Module</text>
<polygon fill="#80b1d3" stroke="transparent" points="392.5,-10 392.5,-30 412.5,-30 412.5,-10 392.5,-10"/>
<text text-anchor="start" x="416.2812" y="-15.4" font-family="sans-serif" font-size="14.00" fill="#000000"> &#160;Bootstrap</text>
<polygon fill="#fdb462" stroke="transparent" points="489.5,-10 489.5,-30 509.5,-30 509.5,-10 489.5,-10"/>
<text text-anchor="start" x="513.1732" y="-15.4" font-family="sans-serif" font-size="14.00" fill="#000000"> &#160;Providers</text>
<polygon fill="#fb8072" stroke="transparent" points="585.5,-10 585.5,-30 605.5,-30 605.5,-10 585.5,-10"/>
<text text-anchor="start" x="609.2258" y="-15.4" font-family="sans-serif" font-size="14.00" fill="#000000"> &#160;Exports</text>
<g id="clust1" class="cluster">
<title>cluster_HomePageModule</title>
<polygon fill="none" stroke="#000000" stroke-dasharray="1,5" points="8,-70 8,-195 847,-195 847,-70 8,-70"/>
</g>
<g id="clust2" class="cluster">
<title>cluster_HomePageModule_declarations</title>
<polygon fill="none" stroke="#000000" points="745,-78 745,-130 839,-130 839,-78 745,-78"/>
</g>
<g id="clust4" class="cluster">
<title>cluster_HomePageModule_imports</title>
<polygon fill="none" stroke="#000000" points="16,-78 16,-130 737,-130 737,-78 16,-78"/>
</g>
<!-- HomePage -->
<g id="node1" class="node">
<title>HomePage</title>
<polygon fill="#ffffb3" stroke="#000000" points="830.9248,-122 753.0752,-122 753.0752,-86 830.9248,-86 830.9248,-122"/>
<text text-anchor="middle" x="792" y="-99.8" font-family="Times,serif" font-size="14.00" fill="#000000">HomePage</text>
</g>
<!-- HomePageModule -->
<g id="node2" class="node">
<title>HomePageModule</title>
<polygon fill="#8dd3c7" stroke="#000000" points="557.4734,-187 554.4734,-191 533.4734,-191 530.4734,-187 436.5266,-187 436.5266,-151 557.4734,-151 557.4734,-187"/>
<text text-anchor="middle" x="497" y="-164.8" font-family="Times,serif" font-size="14.00" fill="#000000">HomePageModule</text>
</g>
<!-- HomePage&#45;&gt;HomePageModule -->
<g id="edge1" class="edge">
<title>HomePage&#45;&gt;HomePageModule</title>
<path fill="none" stroke="#000000" d="M792,-122.2843C792,-143.3211 792,-175 792,-175 792,-175 567.7665,-175 567.7665,-175"/>
<polygon fill="#000000" stroke="#000000" points="567.7665,-171.5001 557.7665,-175 567.7665,-178.5001 567.7665,-171.5001"/>
</g>
<!-- CommonModule -->
<g id="node3" class="node">
<title>CommonModule</title>
<polygon fill="#8dd3c7" stroke="#000000" points="728.6681,-122 725.6681,-126 704.6681,-126 701.6681,-122 617.3319,-122 617.3319,-86 728.6681,-86 728.6681,-122"/>
<text text-anchor="middle" x="673" y="-99.8" font-family="Times,serif" font-size="14.00" fill="#000000">CommonModule</text>
</g>
<!-- CommonModule&#45;&gt;HomePageModule -->
<g id="edge2" class="edge">
<title>CommonModule&#45;&gt;HomePageModule</title>
<path fill="none" stroke="#000000" d="M673,-122.0225C673,-139.3734 673,-163 673,-163 673,-163 567.5692,-163 567.5692,-163"/>
<polygon fill="#000000" stroke="#000000" points="567.5693,-159.5001 557.5692,-163 567.5692,-166.5001 567.5693,-159.5001"/>
</g>
<!-- FormsModule -->
<g id="node4" class="node">
<title>FormsModule</title>
<polygon fill="#8dd3c7" stroke="#000000" points="599.8288,-122 596.8288,-126 575.8288,-126 572.8288,-122 504.1712,-122 504.1712,-86 599.8288,-86 599.8288,-122"/>
<text text-anchor="middle" x="552" y="-99.8" font-family="Times,serif" font-size="14.00" fill="#000000">FormsModule</text>
</g>
<!-- FormsModule&#45;&gt;HomePageModule -->
<g id="edge3" class="edge">
<title>FormsModule&#45;&gt;HomePageModule</title>
<path fill="none" stroke="#000000" d="M530.9113,-122.1061C530.9113,-122.1061 530.9113,-140.991 530.9113,-140.991"/>
<polygon fill="#000000" stroke="#000000" points="527.4114,-140.9909 530.9113,-150.991 534.4114,-140.991 527.4114,-140.9909"/>
</g>
<!-- IonicModule -->
<g id="node5" class="node">
<title>IonicModule</title>
<polygon fill="#8dd3c7" stroke="#000000" points="486.3162,-122 483.3162,-126 462.3162,-126 459.3162,-122 397.6838,-122 397.6838,-86 486.3162,-86 486.3162,-122"/>
<text text-anchor="middle" x="442" y="-99.8" font-family="Times,serif" font-size="14.00" fill="#000000">IonicModule</text>
</g>
<!-- IonicModule&#45;&gt;HomePageModule -->
<g id="edge4" class="edge">
<title>IonicModule&#45;&gt;HomePageModule</title>
<path fill="none" stroke="#000000" d="M461.3356,-122.1061C461.3356,-122.1061 461.3356,-140.991 461.3356,-140.991"/>
<polygon fill="#000000" stroke="#000000" points="457.8356,-140.9909 461.3356,-150.991 464.8356,-140.991 457.8356,-140.9909"/>
</g>
<!-- SharedDirectivesModule -->
<g id="node6" class="node">
<title>SharedDirectivesModule</title>
<polygon fill="#8dd3c7" stroke="#000000" points="379.9496,-122 376.9496,-126 355.9496,-126 352.9496,-122 224.0504,-122 224.0504,-86 379.9496,-86 379.9496,-122"/>
<text text-anchor="middle" x="302" y="-99.8" font-family="Times,serif" font-size="14.00" fill="#000000">SharedDirectivesModule</text>
</g>
<!-- SharedDirectivesModule&#45;&gt;HomePageModule -->
<g id="edge5" class="edge">
<title>SharedDirectivesModule&#45;&gt;HomePageModule</title>
<path fill="none" stroke="#000000" d="M302,-122.0225C302,-139.3734 302,-163 302,-163 302,-163 426.3697,-163 426.3697,-163"/>
<polygon fill="#000000" stroke="#000000" points="426.3697,-166.5001 436.3697,-163 426.3697,-159.5001 426.3697,-166.5001"/>
</g>
<!-- RouterModule.forChild(args) -->
<g id="node7" class="node">
<title>RouterModule.forChild(args)</title>
<polygon fill="#8dd3c7" stroke="#000000" points="205.7323,-122 202.7323,-126 181.7323,-126 178.7323,-122 24.2677,-122 24.2677,-86 205.7323,-86 205.7323,-122"/>
<text text-anchor="middle" x="115" y="-99.8" font-family="Times,serif" font-size="14.00" fill="#000000">RouterModule.forChild(args)</text>
</g>
<!-- RouterModule.forChild(args)&#45;&gt;HomePageModule -->
<g id="edge6" class="edge">
<title>RouterModule.forChild(args)&#45;&gt;HomePageModule</title>
<path fill="none" stroke="#000000" d="M115,-122.2843C115,-143.3211 115,-175 115,-175 115,-175 426.471,-175 426.471,-175"/>
<polygon fill="#000000" stroke="#000000" points="426.471,-178.5001 436.471,-175 426.4709,-171.5001 426.471,-178.5001"/>
</g>
</g>
</svg>
