<?xml version="1.0" encoding="UTF-8" standalone="no"?>
<!DOCTYPE svg PUBLIC "-//W3C//DTD SVG 1.1//EN"
 "http://www.w3.org/Graphics/SVG/1.1/DTD/svg11.dtd">
<!-- Generated by graphviz version 2.40.1 (20161225.0304)
 -->
<!-- Title: dependencies Pages: 1 -->
<svg width="504pt" height="284pt"
 viewBox="0.00 0.00 504.00 284.00" xmlns="http://www.w3.org/2000/svg" xmlns:xlink="http://www.w3.org/1999/xlink">
<g id="graph0" class="graph" transform="scale(1 1) rotate(0) translate(4 280)">
<title>dependencies</title>
<polygon fill="#ffffff" stroke="transparent" points="-4,4 -4,-280 500,-280 500,4 -4,4"/>
<text text-anchor="start" x="227.0091" y="-42.4" font-family="sans-serif" font-weight="bold" font-size="14.00" fill="#000000">Legend</text>
<polygon fill="#ffffb3" stroke="transparent" points="14,-10 14,-30 34,-30 34,-10 14,-10"/>
<text text-anchor="start" x="37.629" y="-15.4" font-family="sans-serif" font-size="14.00" fill="#000000"> &#160;Declarations</text>
<polygon fill="#8dd3c7" stroke="transparent" points="127,-10 127,-30 147,-30 147,-10 127,-10"/>
<text text-anchor="start" x="150.7251" y="-15.4" font-family="sans-serif" font-size="14.00" fill="#000000"> &#160;Module</text>
<polygon fill="#80b1d3" stroke="transparent" points="213,-10 213,-30 233,-30 233,-10 213,-10"/>
<text text-anchor="start" x="236.7812" y="-15.4" font-family="sans-serif" font-size="14.00" fill="#000000"> &#160;Bootstrap</text>
<polygon fill="#fdb462" stroke="transparent" points="310,-10 310,-30 330,-30 330,-10 310,-10"/>
<text text-anchor="start" x="333.6732" y="-15.4" font-family="sans-serif" font-size="14.00" fill="#000000"> &#160;Providers</text>
<polygon fill="#fb8072" stroke="transparent" points="406,-10 406,-30 426,-30 426,-10 406,-10"/>
<text text-anchor="start" x="429.7258" y="-15.4" font-family="sans-serif" font-size="14.00" fill="#000000"> &#160;Exports</text>
<g id="clust1" class="cluster">
<title>cluster_SharedDirectivesModule</title>
<polygon fill="none" stroke="#000000" stroke-dasharray="1,5" points="106,-70 106,-268 390,-268 390,-70 106,-70"/>
</g>
<g id="clust2" class="cluster">
<title>cluster_SharedDirectivesModule_declarations</title>
<polygon fill="none" stroke="#000000" points="250,-78 250,-130 382,-130 382,-78 250,-78"/>
</g>
<g id="clust4" class="cluster">
<title>cluster_SharedDirectivesModule_imports</title>
<polygon fill="none" stroke="#000000" points="114,-78 114,-130 242,-130 242,-78 114,-78"/>
</g>
<g id="clust5" class="cluster">
<title>cluster_SharedDirectivesModule_exports</title>
<polygon fill="none" stroke="#000000" points="180,-208 180,-260 316,-260 316,-208 180,-208"/>
</g>
<!-- HasRoleDirective -->
<g id="node1" class="node">
<title>HasRoleDirective</title>
<polygon fill="#ffffb3" stroke="#000000" points="374.2908,-122 257.7092,-122 257.7092,-86 374.2908,-86 374.2908,-122"/>
<text text-anchor="middle" x="316" y="-99.8" font-family="Times,serif" font-size="14.00" fill="#000000">HasRoleDirective</text>
</g>
<!-- SharedDirectivesModule -->
<g id="node2" class="node">
<title>SharedDirectivesModule</title>
<polygon fill="#8dd3c7" stroke="#000000" points="325.9496,-187 322.9496,-191 301.9496,-191 298.9496,-187 170.0504,-187 170.0504,-151 325.9496,-151 325.9496,-187"/>
<text text-anchor="middle" x="248" y="-164.8" font-family="Times,serif" font-size="14.00" fill="#000000">SharedDirectivesModule</text>
</g>
<!-- HasRoleDirective&#45;&gt;SharedDirectivesModule -->
<g id="edge1" class="edge">
<title>HasRoleDirective&#45;&gt;SharedDirectivesModule</title>
<path fill="none" stroke="#000000" d="M291.9148,-122.1061C291.9148,-122.1061 291.9148,-140.991 291.9148,-140.991"/>
<polygon fill="#000000" stroke="#000000" points="288.4149,-140.9909 291.9148,-150.991 295.4149,-140.991 288.4149,-140.9909"/>
</g>
<!-- HasRoleDirective  -->
<g id="node4" class="node">
<title>HasRoleDirective </title>
<polygon fill="#fb8072" stroke="#000000" points="307.7906,-252 188.2094,-252 188.2094,-216 307.7906,-216 307.7906,-252"/>
<text text-anchor="middle" x="248" y="-229.8" font-family="Times,serif" font-size="14.00" fill="#000000">HasRoleDirective </text>
</g>
<!-- SharedDirectivesModule&#45;&gt;HasRoleDirective  -->
<g id="edge3" class="edge">
<title>SharedDirectivesModule&#45;&gt;HasRoleDirective </title>
<path fill="none" stroke="#000000" stroke-dasharray="5,2" d="M248,-187.1061C248,-187.1061 248,-205.991 248,-205.991"/>
<polygon fill="#000000" stroke="#000000" points="244.5001,-205.9909 248,-215.991 251.5001,-205.991 244.5001,-205.9909"/>
</g>
<!-- CommonModule -->
<g id="node3" class="node">
<title>CommonModule</title>
<polygon fill="#8dd3c7" stroke="#000000" points="233.6681,-122 230.6681,-126 209.6681,-126 206.6681,-122 122.3319,-122 122.3319,-86 233.6681,-86 233.6681,-122"/>
<text text-anchor="middle" x="178" y="-99.8" font-family="Times,serif" font-size="14.00" fill="#000000">CommonModule</text>
</g>
<!-- CommonModule&#45;&gt;SharedDirectivesModule -->
<g id="edge2" class="edge">
<title>CommonModule&#45;&gt;SharedDirectivesModule</title>
<path fill="none" stroke="#000000" d="M201.9295,-122.1061C201.9295,-122.1061 201.9295,-140.991 201.9295,-140.991"/>
<polygon fill="#000000" stroke="#000000" points="198.4296,-140.9909 201.9295,-150.991 205.4296,-140.991 198.4296,-140.9909"/>
</g>
</g>
</svg>
